<svg xmlns="http://www.w3.org/2000/svg" height="800" width="1200" viewBox="-11.16525 -5.85475 96.7655 35.1285"><path d="M36.084 23.419c6.24 0 10.665-1.352 10.665-8.452V8.451c0-7.099-4.425-8.45-10.665-8.45-6.238 0-10.664 1.352-10.664 8.45v6.516c0 7.1 4.426 8.452 10.664 8.452zm0-5.349c-3.196 0-4.239-.337-4.333-3.778V9.096c.094-3.411 1.137-3.748 4.333-3.748 3.198 0 4.334.337 4.334 3.748v5.196c0 3.441-1.136 3.778-4.334 3.778m33.232-3.564v.676c0 2.521-.029 4.793-2.119 6.547-2.09 1.72-4.641 1.689-7.313 1.689-6.27 0-10.85-.306-10.85-8.728V8.727C49.034 1.105 53.122 0 59.884 0c6.33 0 9.28.645 9.403 7.56v.89h-6.331v-.89c-.215-2.06-1.659-2.213-3.75-2.213-3.503 0-3.841 1.075-3.841 4.363v3.597c0 3.441.153 4.762 3.841 4.762 2.552 0 3.779-.183 3.779-2.888v-.676h6.331zM6.331 23.234l6.723-14.598c1.091-2.367 1.698-3.106 4.095-3.106v17.704h6.147V.183h-6.943c-5.716 0-6.862 2.443-9.63 8.453L0 23.234zM72.119 1.966v-.685h.451c.231 0 .477.05.477.325 0 .34-.251.36-.532.36zm0 .286h.38l.578.96h.372l-.623-.975c.32-.041.567-.214.567-.611 0-.437-.257-.63-.774-.63h-.831v2.216h.331v-.96m.401 1.773c1.033 0 1.915-.813 1.915-1.925 0-1.104-.882-1.917-1.915-1.917-1.045 0-1.927.813-1.927 1.917.001 1.112.883 1.925 1.927 1.925M70.976 2.1c0-.911.677-1.598 1.545-1.598.857 0 1.534.687 1.534 1.598 0 .924-.677 1.604-1.534 1.604-.869.001-1.545-.68-1.545-1.604"/></svg>