<svg xmlns="http://www.w3.org/2000/svg" height="800" width="1200" id="svg2760" version="1.1" xml:space="preserve" clip-rule="evenodd" fill-rule="evenodd" image-rendering="optimizeQuality" shape-rendering="geometricPrecision" text-rendering="geometricPrecision" viewBox="-0.3897645 -0.1428075 3.377959 0.856845"><defs id="defs2752"><style id="style2750" type="text/css">.fil0{fill:#005cab}</style></defs><g transform="translate(-.03781 -.03416)" id="Layer_x0020_1"><g id="_218150328"><path d="M2.56486.13816c-.14587 0-.22347.08181-.22647.18785C2.31742.21064 2.21786.1353 2.1045.1353c-.11278 0-.20902.07504-.23.18904C1.87412.223 1.79495.13552 1.69199.13552c-.04485 0-.08376.01722-.11485.0473v-.1479h-.1097v.32934c0 .01081-.0004.0178-.00194.03381-.00665.06842-.0527.10218-.10283.10218-.0521 0-.09914-.02462-.10055-.1018C1.26188.38514 1.2615.3796 1.2615.37014v-.1233h.1708V.14329h-.1708V.03493h-.11123V.3249C1.12915.21695 1.03405.13549.91986.13549c-.07355 0-.1392.03384-.18225.08676V.13816H.72542c-.1433 0-.22072.07897-.22626.18228C.47811.21574.39154.13816.28214.13816c-.05726 0-.102.02081-.13697.05578V.03416H.03781v.2777c0 .0205.0006.03982.00085.05832.00155.12849.09144.2339.2307.2339.12018 0 .20768-.07821.22946-.18243V.5931h.11003V.37908c0-.00976.00056-.0206.00086-.0306C.61177.28328.65447.24443.7224.24329a.2334.2334 0 00-.03731.1269c0 .12964.1051.23468.23478.23468.11419 0 .2093-.08143.23041-.18938v.00029c0 .11274.09054.18962.1996.18962.04598 0 .08658-.0197.11756-.05191v.03956h.10971V.36011c.00006-.00553.00026-.01.0004-.0143.00278-.07472.04658-.10723.0947-.10723.0477 0 .08896.03264.0906.10687a.26882.26882 0 01.00047.01802v.2296l.11121.00005V.41888c.02092.1125.11628.18513.23004.18513.12902 0 .2019-.08257.22145-.16893h-.10759c-.0094.0307-.0476.07785-.11391.07785-.05981 0-.11083-.04085-.12373-.10756h.35746V.5931h.11003V.37908c0-.00976.00057-.0206.00091-.0306.00206-.0662.04597-.10532.11568-.10532h.01219v-.105h-.01219zM.26937.49844C.19694.49844.14115.44177.14115.37018c0-.07159.05543-.12823.12822-.12823.0728 0 .12824.05632.12824.12823 0 .07192-.0558.12826-.12824.12826zm.65049 0C.84743.49844.79165.44177.79165.37018c0-.07159.05543-.12823.1282-.12823.07282 0 .12825.05632.12825.12823 0 .07192-.0558.12826-.12824.12826zM1.98562.31866c.01809-.05605.06475-.09069.1189-.09069.06958 0 .11127.05583.11919.0907z" class="fil0" id="_217143760"/><path d="M2.52602.5455c0 .03037.0247.05462.0551.05462.0304 0 .05512-.02425.05512-.05462 0-.03042-.02472-.05471-.05512-.05471-.0304 0-.0551.02429-.0551.0547zm.00719 0a.04798.04798 0 01.0479-.04796.048.048 0 01.04794.04796c0 .0264-.0215.0479-.04793.0479A.04796.04796 0 012.5332.5455z" class="fil0" id="_217147792"/><path d="M2.56471.51987h.0223c.00879 0 .01192.00409.01192.0115 0 .00743-.0031.01212-.01188.01212H2.5647zm0 .03093h.02187c.00688 0 .00974.00426.01044.01175.0002.00219.00057.00494.00079.0076.00029.00367.00093.00646.00128.00817h.00976V.57705c-.00102-.0013-.0019-.00366-.00242-.00844C2.6062.56635 2.60586.56382 2.60559.56105c-.00072-.00733-.00314-.01193-.008-.0144.00603-.00202.0103-.00787.0103-.01654 0-.01105-.00714-.0177-.02058-.0177H2.556v.0659h.0087z" class="fil0" id="_217148272"/></g></g></svg>