<svg xmlns="http://www.w3.org/2000/svg" height="800" width="1200" viewBox="-26.3622 -8.6955 228.4724 52.173"><path d="M40.577 20.289v8.695c0 3.161.527 4.742 3.953 4.742v.264H31.355v-.264c3.952 0 3.425-4.216 3.425-7.377v-9.223c0-3.162.791-9.749-3.162-9.749v-.263h12.648v.264c-3.426 0-3.689 2.108-3.689 5.27v6.851h.791c5.006-5.006 5.797-6.061 6.06-6.587 2.635-4.216.264-5.27-1.317-5.27v-.528h10.803v.527c-1.845 0-5.27 2.635-7.378 4.215l-7.904 7.642c10.803.527 10.539 6.06 11.593 10.012.791 2.372 1.317 3.689 3.689 4.216v.264h-9.486c-1.317-7.904-2.108-14.491-6.851-13.701zm25.296 1.054c0 3.689.791 4.743 2.898 4.743v.264H57.704v-.264c2.372 0 2.372-2.635 2.372-4.743v-9.749c0-2.635-.527-3.952-2.635-3.952v-.528h8.432zM62.974 0c1.581 0 3.162 1.318 3.162 2.898 0 1.581-1.581 3.162-3.162 3.162s-3.162-1.581-3.162-3.162C59.813 1.318 61.394 0 62.974 0zm14.755 9.486c1.845-2.635 3.162-2.635 5.27-2.635 5.534 0 5.796 3.688 5.796 7.114v7.378c0 3.689.527 4.743 2.636 4.743v.264H80.628v-.264c2.108 0 2.108-1.581 2.108-4.743v-7.378c0-2.635.264-6.06-1.844-6.06-2.635 0-2.635 1.845-3.162 2.898v10.54c0 3.162 0 4.743 1.845 4.743v.264H69.298v-.264c2.108 0 2.372-1.581 2.372-4.743v-9.749c0-2.635-.527-3.952-2.898-3.952v-.528h8.958v2.372zm55.07-2.372h3.953l-.791 1.317h-3.162v11.594c0 5.797 3.426 5.27 4.743 3.952l.264.527c-3.162 2.371-5.271 1.845-6.061 1.845-3.162 0-5.007-2.108-5.007-4.743V8.432h-3.425c2.635-1.054 7.114-4.479 8.959-7.114h.526v5.796z" clip-rule="evenodd" fill-rule="evenodd"/><path d="M135.434 16.863c0-4.479 4.479-10.012 9.75-10.012 4.742 0 9.222 4.743 9.222 9.749 0 5.797-5.007 10.012-9.222 10.012-5.271 0-9.75-4.479-9.75-9.749zm12.911-.527c0-5.797 0-9.222-3.161-9.222-3.426 0-3.162 4.479-3.162 9.222 0 5.797-.264 10.013 3.162 10.013 3.424.001 3.161-4.216 3.161-10.013z" clip-rule="evenodd" fill-rule="evenodd"/><path d="M161.783 9.486c2.107-2.635 3.426-2.635 5.533-2.635 5.27 0 5.797 3.688 5.797 7.114v7.378c0 3.689.527 4.743 2.635 4.743v.264h-10.803v-.264c1.844 0 1.844-1.581 1.844-4.743v-7.378c0-2.635.264-6.06-1.844-6.06-2.372 0-2.372 1.845-3.162 2.898v10.54c0 3.162.264 4.743 2.107 4.743v.264h-10.275v-.264c2.107 0 2.371-1.581 2.371-4.743v-9.749c0-2.635-.527-3.952-2.898-3.952v-.528h8.695zm-60.34 13.965c-.526.791-1.317 3.162-4.479 3.162-3.689 0-6.588-3.162-6.588-9.749 0-5.27 3.426-10.012 7.642-10.012 2.898 0 3.952 2.371 3.952 2.371V7.378h8.959v.264s-3.162-.527-3.162 3.425v15.02c-.264 3.952-1.845 6.587-9.223 8.695v-.527c4.218-2.9 3.427-7.115 2.899-10.804zm.528-7.378c0-4.479-.264-8.695-3.162-8.695-2.107 0-2.635 3.425-2.635 9.485 0 5.27.527 8.695 2.635 8.695 1.845 0 3.162-3.952 3.162-7.905z" clip-rule="evenodd" fill-rule="evenodd"/><path d="M108.821 20.289h2.898c-.264 6.061 3.952 6.061 5.007 6.061 1.844 0 3.688-1.581 3.688-3.163 0-4.743-10.54-2.898-10.54-10.276 0-3.425 2.636-6.06 6.588-6.06 6.323 0 7.114 3.688 7.114 5.006h-2.372c.264-1.054-.263-4.743-4.215-4.743-3.426 0-3.162 2.635-3.162 2.898 0 4.743 11.33 2.898 11.33 10.013 0 3.425-3.162 6.324-7.114 6.587-7.113.264-9.222-4.742-9.222-6.323zm-45.32 8.432h-2.107v5.269h-1.055v-5.269h-1.844v-.79h5.006zm10.803-.79v.79h-3.689v1.844h3.426v.527h-3.426V33.2h3.689v.79h-4.479v-6.059zm9.222-.264c.791 0 1.581.264 1.844.526.527.527.791 1.054.791 1.581h-.791c0-.527-.263-.79-.527-1.054-.263-.264-.79-.264-1.317-.264-.527 0-1.054.264-1.317.527-.527.526-.527 1.054-.527 2.107 0 .527 0 1.054.527 1.581.264.529.791.529 1.317.529.791 0 1.054 0 1.581-.527 0-.264.263-.527.263-1.054h.791c0 .79-.264 1.317-.791 1.581-.263.526-1.054.79-1.844.79s-1.317-.264-1.844-.526c-.527-.527-1.054-1.581-1.054-2.636 0-.79.264-1.581.791-2.107.526-.79 1.317-1.054 2.107-1.054zm10.013.264v2.371h3.426v-2.371h.79v6.059h-.79v-2.898h-3.426v2.898h-.791v-6.059zm15.546 0l3.162 4.742v-4.742h.79v6.059h-.79l-3.162-5.006v5.006h-.79v-6.059zm12.647 4.742c-.264-.527-.527-1.054-.527-1.581 0-1.054.264-1.581.527-2.107.527-.264 1.054-.527 1.581-.527.79 0 1.317.264 1.581.527.527.526.527 1.054.527 1.844 0 .527 0 1.317-.527 1.845-.264.264-.791.791-1.581.791-.79 0-1.317-.265-1.581-.792zm-.79-3.952c-.527.79-.527 1.317-.527 2.107 0 1.055.264 1.845.527 2.372.526.526 1.317.79 2.371.79s1.845-.264 2.371-1.054c.527-.527.791-1.317.791-2.108 0-.79-.264-1.581-.791-2.107-.526-.527-1.317-1.054-2.371-1.054s-1.844.526-2.371 1.054zm13.438-.79V33.2h3.162v.79h-3.952v-6.059zm11.066 4.742c-.263-.527-.526-1.054-.526-1.581 0-1.054.264-1.581.79-2.107.264-.264.791-.527 1.317-.527.791 0 1.317.264 1.581.527.527.526.79 1.054.79 1.844 0 .527-.263 1.317-.526 1.845-.527.264-1.054.791-1.581.791-.79-.001-1.317-.265-1.845-.792zm-.79-3.952c-.264.79-.527 1.317-.527 2.107 0 1.055.264 1.845.791 2.372.526.526 1.317.79 2.107.79 1.055 0 1.845-.264 2.371-1.054.527-.527.791-1.317.791-2.108 0-.79-.264-1.581-.791-2.107-.526-.527-1.316-1.054-2.371-1.054-1.053 0-1.843.526-2.371 1.054zm15.282-1.054c.791 0 1.317.264 1.581.526.527.264 1.054.791 1.054 1.581h-.79c0-.527-.264-.79-.527-1.054s-.79-.264-1.317-.264c-.526 0-1.054.264-1.317.527-.527.526-.527 1.054-.527 1.844 0 .791 0 1.317.264 1.845.527.527 1.055.791 1.581.791.791 0 1.054-.264 1.581-.527.264-.264.527-.791.527-1.581h-2.108v-.79h2.898v3.425h-.526l-.264-.79c-.264.264-.527.526-.791.526-.264.264-.79.264-1.317.264-.79 0-1.317-.264-1.845-.526-.79-.791-1.054-1.581-1.054-2.372 0-1.054.264-1.845 1.054-2.635.526-.526 1.053-.79 1.843-.79zm10.804.264l1.58 2.897 1.845-2.897h1.054l-2.371 3.688v2.371h-.79v-2.371l-2.372-3.688zM1.581 5.27c-.264-.264-.527-1.581-.527-1.581 0-.791.264-1.054.264-1.054S5.797.264 13.702.264C16.336 0 20.289 0 24.505 1.318c.263.263.527.527.527.79.263.527.263 1.054.263 1.317.264 1.054.264 1.845.264 2.372 0 .264-.527 1.054-.527 1.317-.264.791.263 3.425 0 4.743 0 1.318-.527 6.061-1.845 8.959-1.054 3.162-3.162 2.635-4.215 2.635l5.006 10.54H0l3.689-18.444s0-.527-.527-.791c-.79-.527-1.581-1.581-1.581-1.581S1.054 12.647.527 9.75c0 0-.527-2.898 0-3.426.264-.263.791-.791 1.054-.791z" clip-rule="evenodd" fill-rule="evenodd"/><path d="M20.552 10.276l-1.58-.526s-.264 0-.527.263c0 .264-.264 1.317-.264 1.317v.264l3.689 2.635s-2.898-.264-3.952-.264c-1.054.264-2.898 1.318-4.216 1.582-1.054.263-5.797.527-6.06.527L5.797 8.695s-.264-1.844-2.108-1.844c-1.581 0-1.844.263-1.844.527-.264.264 0 .527 0 .527l5.006 8.168s-3.425-1.581-4.743-3.162c-.791-1.054-1.317-5.533-.791-6.324.264-.526 3.162-1.317 4.216-1.054.527 0 1.054.527 1.317 1.054h.264s-.263-1.581-1.317-1.581c-1.845-.263-3.425.264-3.425.264h-.264c0-.264-.263-1.845-.263-1.845s0-.263.263-.527c0 0 4.743-2.108 11.857-2.108.791 0 7.378 0 10.54 1.317.263.264 0 1.054 0 1.845-.264.263-.791.527-.791.527-.263 0-.527.527-.527.527s.527 6.06.791 6.324c0 .264-.264.264-1.054.264h-3.425s-.791 0-.791-.527c0-.263.264-.79.264-.79h.79s1.317-.001.79-.001zm-5.006 5.27s3.162-.527 6.587.263c0 0 .791.527.791 1.054 0 0-5.27.264-7.378-1.317zm.264 5.27s.791-3.689 6.851-3.162c0 0 .527.264-.791 1.581s-3.953 2.108-6.06 1.581z" fill="#ED1C2E" clip-rule="evenodd" fill-rule="evenodd"/><path d="M14.492 2.635s.791 0 3.426.527c1.317.263 2.108.527 2.371.791.264 0 .264.263 0 .263 0 .264-3.425-1.054-5.533-.791 0 0-2.108.791-4.743 3.162H8.959c-.001 0 2.635-2.634 5.533-3.952z" clip-rule="evenodd" fill-rule="evenodd"/><path d="M12.121 6.324s2.108-1.054 3.425-1.317c1.054-.263 1.844-.263 2.372 0 .527 0 1.054 1.317 1.054 1.581 0 0-1.582.791-3.162.527-1.318-.264-2.899-.264-3.689-.791z" clip-rule="evenodd" fill-rule="evenodd"/><path d="M24.505 4.743c.263 0 .263 0 .527.263.263 0 0 .527 0 .527 0 .264-.264 0-1.318 0 0 0 .527-.79.791-.79zM10.276 33.2H1.054l3.425-17.654 2.108 1.581zm-.527-9.749s4.479 2.899 5.27 3.953l.527 6.061h-3.425zm7.905 5.533s2.635 2.635 3.425 4.479H16.6z" fill="#ED1C2E" clip-rule="evenodd" fill-rule="evenodd"/><path d="M21.343 5.27s.264-.264.264.263c.263 1.318.79 4.479.79 4.743 0 .527-.527.263-.527.263zM11.857.791h.264l1.317 2.372-.527.263zm-6.06 7.904s-.527-1.581.527-1.844c1.054-.264 2.372-.264 4.216-.264 0 0-2.635.527-3.425.791-1.055.264-1.318 1.317-1.318 1.317z" fill="#FFF" clip-rule="evenodd" fill-rule="evenodd"/><path d="M173.66 6.615c.127 0 .283.026.283.171 0 .184-.1.224-.255.224h-.028v.486l.27.486h.411l-.426-.723c.227-.013.396-.131.396-.434 0-.368-.241-.486-.651-.5zm0 2.078v-.355c.581-.013 1.063-.486 1.063-1.184 0-.697-.482-1.157-1.063-1.17v-.355c.794.013 1.517.565 1.517 1.525s-.723 1.526-1.517 1.539zm-.284-1.683v-.395h.284v-.289h-.639v1.657h.354v-.697h.17l.114.21V7.01zm.284-1.381v.355h-.028c-.61 0-1.092.473-1.092 1.17 0 .71.481 1.184 1.092 1.184h.028v.355h-.028c-.809 0-1.546-.565-1.546-1.539 0-.959.737-1.525 1.546-1.525h.028z" fill="#020202" clip-rule="evenodd" fill-rule="evenodd"/></svg>