<svg xmlns="http://www.w3.org/2000/svg" height="800" width="1200" viewBox="-44.7 -17.937225 387.4 107.62335"><path d="M206.2814 59.6805c-12.828 0-17.7715-11.8083-17.7715-23.8084s4.9435-23.8005 17.7715-23.8005c12.8148 0 17.7715 11.8004 17.7715 23.8005s-4.9567 23.8084-17.7715 23.8084m0-59.68c-20.2 0-31.8637 15.1355-31.8637 35.8716 0 20.744 11.6638 35.8768 31.8637 35.8768 20.1894 0 31.8505-15.1328 31.8505-35.8768 0-20.736-11.661-35.8716-31.8505-35.8716M0 2.0126h50.6155v12.0737H14.079v15.0173h34.0713v11.7688H14.079v16.7965h36.5365v12.0684H0zm83.472 35.3389H70.7255V14.0713H83.472c8.8595 0 14.7518 3.8555 14.7518 11.6427 0 7.7846-5.8923 11.6375-14.7518 11.6375m-26.8202 32.384h14.0737V49.4147H83.472c17.2512 0 28.8282-8.4732 28.8282-23.7007 0-15.23-11.577-23.7006-28.8282-23.7006H56.6518zM257.905 2.0126h-14.4548v67.7247h13.803V42.3047c0-7.5086-.268-14.1683-.523-20.058 1.6268 3.3903 6.5704 13.577 8.849 17.4036l17.966 30.087H298V2.0126h-13.803v26.7467c0 7.5007.276 14.8595.523 20.736-1.6268-3.3903-6.5572-13.5717-8.87-17.393zM128.289 47.3303c0 9.1013 7.5717 12.6387 15.6244 12.6387 5.2563 0 13.7925-1.5243 13.7925-8.5151 0-7.3825-10.4285-8.778-20.4917-11.4561-10.552-2.7938-20.715-6.7517-20.715-19.3011C116.4992 6.707 129.7319 0 142.092 0c14.2708 0 27.3958 6.2287 27.3958 22.0344h-14.0816c-.4784-8.2366-6.8017-10.3497-13.987-10.3497-4.7938 0-10.8306 2.0132-10.8306 7.7688 0 5.2668 3.4455 6.079 20.5836 10.4916 4.9882 1.2457 20.6178 4.2629 20.6178 19.7768 0 12.5573-9.8687 21.9371-28.4654 21.9371-15.1276 0-29.3065-7.4665-29.1199-24.3287z" fill="#003f98"/></svg>