<svg width="200" height="56" viewBox="0 0 200 56" fill="none" xmlns="http://www.w3.org/2000/svg">
  <rect x="1" y="1" width="198" height="54" rx="14" fill="white" stroke="#E7E1D5"/>
  <rect x="16" y="12" width="36" height="32" rx="8" fill="#0C4E2A"/>
  <path d="M25 22H43V25H28.5V27H41.5V30H28.5V34H25V22Z" fill="white"/>
  <path d="M61 20H77.8V25.6H67.7V29.2H76.5V34.3H67.7V38.4H78.4V44H61V20Z" fill="#0C4E2A"/>
  <path d="M82 20H95.1C100.3 20 103.8 22.6 103.8 27.3C103.8 30.4 102.2 32.4 99.5 33.3L105.2 44H97.8L93.1 34.6H88.7V44H82V20ZM88.7 25.3V29.7H94.1C95.9 29.7 97 28.9 97 27.5C97 26.1 95.9 25.3 94.1 25.3H88.7Z" fill="#0C4E2A"/>
  <path d="M108 20H126.2V25.7H114.7V29.2H124.9V34.6H114.7V44H108V20Z" fill="#0C4E2A"/>
  <path d="M129.7 20H136.4V29L143.6 20H151.6L143 30.2L152.1 44H144L138.7 35.6L136.4 38.3V44H129.7V20Z" fill="#0C4E2A"/>
  <path d="M154.9 20H173.5V25.9H161.6V29H171.9V34.4H161.6V38.1H174V44H154.9V20Z" fill="#0C4E2A"/>
</svg>
