<svg width="190" height="56" viewBox="0 0 190 56" fill="none" xmlns="http://www.w3.org/2000/svg">
  <rect x="1" y="1" width="188" height="54" rx="14" fill="white" stroke="#DFE7F5"/>
  <rect x="16" y="12" width="32" height="32" rx="10" fill="#1749B3"/>
  <path d="M24 20H28.2V26.1H35.8V20H40V36H35.8V29.8H28.2V36H24V20Z" fill="white"/>
  <path d="M60 20H66.7V25.8H74.1V20H80.8V44H74.1V31.6H66.7V44H60V20Z" fill="#1749B3"/>
  <path d="M86.4 20H93.1V38.1H103.6V44H86.4V20Z" fill="#1749B3"/>
  <path d="M106.9 20H125.1V25.7H113.6V29.2H123.8V34.6H113.6V44H106.9V20Z" fill="#1749B3"/>
  <path d="M129 20H147.2V25.7H135.7V29.2H145.9V34.6H135.7V44H129V20Z" fill="#1749B3"/>
  <path d="M150.4 20H169V25.9H157.1V29H167.4V34.4H157.1V38.1H169.5V44H150.4V20Z" fill="#1749B3"/>
</svg>
